<svg width="1635" height="1653" viewBox="0 0 1635 1653" fill="none" xmlns="http://www.w3.org/2000/svg">
<path d="M1151.47 647.573L1472.73 333.665C1507.23 300.093 1522.53 251.061 1495.28 214.579C1491.21 209.134 1485.77 204.927 1480.09 201.196L1473.24 196.696C1467.17 192.706 1460.7 189.156 1453.56 187.841C1408.15 179.482 1351.48 216.134 1317.18 249.515" stroke="#2864FF" stroke-width="18.7046" stroke-linecap="square"/>
<path d="M1057.77 502.051L1409 160.296C1443.5 126.723 1458.8 77.6919 1431.55 41.2099C1427.49 35.7654 1422.04 31.5584 1416.36 27.827L1409.51 23.3266C1403.44 19.3373 1396.98 15.7869 1389.83 14.4717C1344.42 6.11255 1287.76 42.7644 1253.45 76.1456" stroke="#2864FF" stroke-width="18.7046" stroke-linecap="square"/>
<line x1="1253.01" y1="76.3066" x2="806.836" y2="504.63" stroke="#2864FF" stroke-width="18.9724"/>
<path d="M811.74 498.227L1162.97 156.472C1197.47 122.899 1212.77 73.8676 1185.52 37.3855C1181.46 31.941 1176.01 27.734 1170.33 24.0026L1163.48 19.5023C1157.41 15.5129 1150.94 11.9626 1143.8 10.6474C1098.39 2.28821 1041.72 38.9401 1007.42 72.3212" stroke="#2864FF" stroke-width="18.7046" stroke-linecap="square"/>
<path d="M1002.97 76.4752L453.53 578.735" stroke="#2864FF" stroke-width="18.9724"/>
<line x1="1379.18" y1="191.018" x2="1014.64" y2="542.882" stroke="#2864FF" stroke-width="18.9724"/>
<path d="M1200.54 803.095L1464.08 550.173C1494.08 520.983 1507.38 478.352 1483.69 446.633C1480.15 441.899 1475.42 438.242 1470.48 434.998L1464.52 431.085C1459.25 427.616 1453.62 424.529 1447.41 423.386C1407.93 416.118 1358.66 447.985 1328.83 477.008" stroke="#2864FF" stroke-width="16.2627" stroke-linecap="square"/>
<path d="M1454.23 351.826L1149.79 651.193" stroke="#2864FF" stroke-width="18.9724"/>
<path d="M296.791 499.592C419.728 319.062 492.328 113.154 555.79 164.952C619.252 216.75 571.038 405.089 448.1 585.619" stroke="#2864FF" stroke-width="18.9686"/>
<path d="M891.393 925.327L809.684 668.44C801.072 641.365 772.141 626.397 745.066 635.009L737.222 637.504C710.147 646.116 695.179 675.046 703.791 702.122" stroke="#2864FF" stroke-width="18.9686" stroke-linecap="square"/>
<line x1="705.943" y1="708.652" x2="837.433" y2="1127.61" stroke="#2864FF" stroke-width="18.9686"/>
<path d="M969.062 789.212L889.347 531.7C880.945 504.558 852.132 489.367 824.99 497.769L817.127 500.203C789.986 508.605 774.795 537.418 783.196 564.559" stroke="#2864FF" stroke-width="18.9686" stroke-linecap="square"/>
<line x1="785.84" y1="572.603" x2="894.582" y2="934.309" stroke="#2864FF" stroke-width="18.9686"/>
<path d="M1092.22 804.894L1012.5 547.381C1004.1 520.24 975.288 505.049 948.146 513.451L940.284 515.885C913.142 524.287 897.951 553.1 906.353 580.241" stroke="#2864FF" stroke-width="18.9686" stroke-linecap="square"/>
<line x1="908.779" y1="588.106" x2="998.013" y2="883.853" stroke="#2864FF" stroke-width="18.9686"/>
<path d="M1212.45 848.237L1141.49 619.012C1134.01 594.852 1108.36 581.33 1084.2 588.809L1077.2 590.975C1053.04 598.454 1039.52 624.102 1047 648.262" stroke="#2864FF" stroke-width="18.9686" stroke-linecap="square"/>
<line x1="1045.2" y1="639.16" x2="1096.44" y2="813.367" stroke="#2864FF" stroke-width="18.9686"/>
<path d="M1214.69 855.7L1234.96 917.187" stroke="#2864FF" stroke-width="18.9686"/>
<path d="M777.763 1213.29C705.425 1142.35 614.137 1098.83 647.713 1064.59C681.289 1030.35 767.15 1060.1 839.488 1131.04" stroke="#2864FF" stroke-width="18.9686"/>
<path d="M299.421 497.472C160.384 686.879 166.822 788.391 128.637 819.695" stroke="#2864FF" stroke-width="18.9686"/>
<path d="M447.744 584.717C518.024 721.874 406.764 778.846 447.745 837.62" stroke="#2864FF" stroke-width="18.9686" stroke-linecap="round"/>
<path d="M1234.9 917.14C1296.18 1103.96 1155.72 1177.69 1210.38 1224.02" stroke="#2864FF" stroke-width="18.9686"/>
<path d="M778.672 1216.01C618.917 1330.61 581.37 1258.66 586.284 1309.45" stroke="#2864FF" stroke-width="18.9686"/>
<path d="M777.642 1213.02C794.114 1228.43 881.749 1292.7 934.865 1295.88" stroke="#2864FF" stroke-width="18.9686"/>
<path d="M252.168 1594V1313.34H311.507V1429.14H431.968V1313.34H491.17V1594H431.968V1478.06H311.507V1594H252.168ZM798.008 1453.67C798.008 1484.27 792.207 1510.31 780.604 1531.78C769.092 1553.25 753.378 1569.65 733.461 1580.98C713.636 1592.22 691.343 1597.84 666.584 1597.84C641.643 1597.84 619.259 1592.17 599.434 1580.84C579.608 1569.52 563.94 1553.12 552.428 1531.65C540.916 1510.18 535.161 1484.18 535.161 1453.67C535.161 1423.06 540.916 1397.02 552.428 1375.55C563.94 1354.08 579.608 1337.73 599.434 1326.49C619.259 1315.16 641.643 1309.5 666.584 1309.5C691.343 1309.5 713.636 1315.16 733.461 1326.49C753.378 1337.73 769.092 1354.08 780.604 1375.55C792.207 1397.02 798.008 1423.06 798.008 1453.67ZM737.846 1453.67C737.846 1433.84 734.877 1417.12 728.939 1403.51C723.092 1389.9 714.823 1379.57 704.134 1372.54C693.445 1365.5 680.928 1361.99 666.584 1361.99C652.241 1361.99 639.724 1365.5 629.035 1372.54C618.345 1379.57 610.031 1389.9 604.093 1403.51C598.246 1417.12 595.322 1433.84 595.322 1453.67C595.322 1473.49 598.246 1490.21 604.093 1503.83C610.031 1517.44 618.345 1527.76 629.035 1534.8C639.724 1541.83 652.241 1545.35 666.584 1545.35C680.928 1545.35 693.445 1541.83 704.134 1534.8C714.823 1527.76 723.092 1517.44 728.939 1503.83C734.877 1490.21 737.846 1473.49 737.846 1453.67ZM841.964 1313.34H915.145L992.437 1501.91H995.726L1073.02 1313.34H1146.2V1594H1088.64V1411.32H1086.31L1013.68 1592.63H974.485L901.852 1410.64H899.522V1594H841.964V1313.34ZM1195.09 1594V1313.34H1384.21V1362.26H1254.43V1429.14H1374.48V1478.06H1254.43V1545.08H1384.76V1594H1195.09Z" fill="#2864FF"/>
</svg>
