<svg width="1398" height="1311" viewBox="0 0 1398 1311" fill="none" xmlns="http://www.w3.org/2000/svg">
<path d="M1029.83 647.573L1351.09 333.665C1385.6 300.093 1400.89 251.061 1373.64 214.579C1369.58 209.134 1364.13 204.927 1358.45 201.196L1351.6 196.696C1345.53 192.706 1339.07 189.156 1331.92 187.841C1286.51 179.482 1229.85 216.134 1195.54 249.515" stroke="white" stroke-width="18.7046" stroke-linecap="square"/>
<path d="M936.135 502.052L1287.36 160.296C1321.87 126.724 1337.16 77.6921 1309.92 41.21C1305.85 35.7655 1300.4 31.5585 1294.73 27.8271L1287.88 23.3267C1281.8 19.3374 1275.34 15.787 1268.19 14.4718C1222.78 6.11267 1166.12 42.7645 1131.81 76.1457" stroke="white" stroke-width="18.7046" stroke-linecap="square"/>
<line x1="1131.37" y1="76.3066" x2="685.199" y2="504.63" stroke="white" stroke-width="18.9724"/>
<path d="M690.103 498.227L1041.33 156.472C1075.84 122.899 1091.13 73.8679 1063.88 37.3858C1059.82 31.9413 1054.37 27.7343 1048.69 24.0029L1041.84 19.5025C1035.77 15.5132 1029.31 11.9628 1022.16 10.6476C976.751 2.28845 920.088 38.9403 885.781 72.3215" stroke="white" stroke-width="18.7046" stroke-linecap="square"/>
<path d="M881.335 76.4753L331.893 578.735" stroke="white" stroke-width="18.9724"/>
<line x1="1257.55" y1="191.018" x2="893.005" y2="542.882" stroke="white" stroke-width="18.9724"/>
<path d="M1078.91 803.095L1342.44 550.173C1372.44 520.983 1385.74 478.353 1362.05 446.633C1358.52 441.9 1353.78 438.242 1348.84 434.998L1342.89 431.085C1337.61 427.616 1331.99 424.529 1325.78 423.386C1286.29 416.118 1237.03 447.985 1207.2 477.008" stroke="white" stroke-width="16.2627" stroke-linecap="square"/>
<path d="M1332.59 351.826L1028.15 651.194" stroke="white" stroke-width="18.9724"/>
<path d="M175.154 499.592C298.092 319.062 370.692 113.154 434.154 164.953C497.616 216.751 449.402 405.089 326.464 585.619" stroke="white" stroke-width="18.9686"/>
<path d="M769.756 925.328L688.047 668.44C679.435 641.365 650.505 626.398 623.429 635.01L615.585 637.504C588.51 646.116 573.542 675.047 582.154 702.122" stroke="white" stroke-width="18.9686" stroke-linecap="square"/>
<line x1="584.306" y1="708.653" x2="715.796" y2="1127.61" stroke="white" stroke-width="18.9686"/>
<path d="M847.426 789.213L767.71 531.7C759.308 504.559 730.495 489.367 703.354 497.769L695.491 500.203C668.349 508.605 653.158 537.418 661.56 564.56" stroke="white" stroke-width="18.9686" stroke-linecap="square"/>
<line x1="664.203" y1="572.603" x2="772.946" y2="934.309" stroke="white" stroke-width="18.9686"/>
<path d="M970.582 804.894L890.866 547.382C882.464 520.24 853.651 505.049 826.51 513.451L818.647 515.885C791.505 524.287 776.314 553.1 784.716 580.241" stroke="white" stroke-width="18.9686" stroke-linecap="square"/>
<line x1="787.142" y1="588.106" x2="876.377" y2="883.853" stroke="white" stroke-width="18.9686"/>
<path d="M1090.81 848.237L1019.85 619.012C1012.37 594.852 986.726 581.33 962.566 588.809L955.567 590.975C931.407 598.454 917.885 624.103 925.364 648.262" stroke="white" stroke-width="18.9686" stroke-linecap="square"/>
<line x1="923.562" y1="639.16" x2="974.801" y2="813.368" stroke="white" stroke-width="18.9686"/>
<path d="M1093.05 855.7L1113.33 917.187" stroke="white" stroke-width="18.9686"/>
<path d="M656.126 1213.29C583.788 1142.35 492.5 1098.83 526.076 1064.59C559.652 1030.35 645.513 1060.1 717.851 1131.04" stroke="white" stroke-width="18.9686"/>
<path d="M177.784 497.473C38.7472 686.879 45.1855 788.391 7.00024 819.695" stroke="white" stroke-width="18.9686"/>
<path d="M326.108 584.718C396.387 721.874 285.128 778.846 326.108 837.621" stroke="white" stroke-width="18.9686" stroke-linecap="round"/>
<path d="M1113.27 917.14C1174.54 1103.96 1034.09 1177.69 1088.74 1224.02" stroke="white" stroke-width="18.9686"/>
<path d="M657.034 1216.01C497.279 1330.61 459.732 1258.66 464.647 1309.45" stroke="white" stroke-width="18.9686"/>
<path d="M656.005 1213.02C672.477 1228.43 760.113 1292.7 813.228 1295.88" stroke="white" stroke-width="18.9686"/>
</svg>
