<svg width="3282" height="2528" viewBox="0 0 3282 2528" fill="none" xmlns="http://www.w3.org/2000/svg">
<rect x="293.953" width="2988.05" height="2526.13" fill="url(#paint0_linear_114_1578)"/>
<path d="M3067.44 1.0835L3067.44 2527.21L180.438 2527.21C80.7847 2527.21 0 2446.43 0 2346.77L0 181.521C0 81.8682 80.7847 1.0835 180.438 1.0835L3067.44 1.0835Z" fill="url(#paint1_linear_114_1578)"/>
<path d="M1867.64 1080.84L2188.91 766.933C2223.41 733.36 2238.7 684.329 2211.46 647.847C2207.39 642.402 2201.95 638.195 2196.27 634.464L2189.42 629.964C2183.35 625.974 2176.88 622.424 2169.74 621.109C2124.32 612.749 2067.66 649.401 2033.35 682.782" stroke="white" stroke-width="18.7046" stroke-linecap="square"/>
<path d="M1773.95 935.319L2125.18 593.564C2159.68 559.991 2174.97 510.96 2147.73 474.478C2143.66 469.033 2138.22 464.826 2132.54 461.095L2125.69 456.595C2119.62 452.605 2113.15 449.055 2106.01 447.74C2060.6 439.38 2003.93 476.032 1969.63 509.414" stroke="white" stroke-width="18.7046" stroke-linecap="square"/>
<line x1="1969.18" y1="509.574" x2="1523.01" y2="937.898" stroke="white" stroke-width="18.9724"/>
<path d="M1527.92 931.495L1879.15 589.739C1913.65 556.167 1928.94 507.135 1901.7 470.653C1897.63 465.209 1892.19 461.002 1886.51 457.27L1879.66 452.77C1873.59 448.781 1867.12 445.23 1859.98 443.915C1814.56 435.556 1757.9 472.208 1723.59 505.589" stroke="white" stroke-width="18.7046" stroke-linecap="square"/>
<path d="M1719.15 509.743L1169.71 1012" stroke="white" stroke-width="18.9724"/>
<line x1="2095.36" y1="624.286" x2="1730.82" y2="976.15" stroke="white" stroke-width="18.9724"/>
<path d="M1916.72 1236.36L2180.26 983.44C2210.26 954.251 2223.55 911.62 2199.86 879.901C2196.33 875.167 2191.59 871.509 2186.66 868.265L2180.7 864.352C2175.42 860.884 2169.8 857.797 2163.59 856.653C2124.11 849.386 2074.84 881.253 2045.01 910.276" stroke="white" stroke-width="16.2627" stroke-linecap="square"/>
<path d="M2170.4 785.093L1865.96 1084.46" stroke="white" stroke-width="18.9724"/>
<path d="M1012.97 932.859C1135.91 752.33 1208.51 546.422 1271.97 598.22C1335.43 650.018 1287.22 838.357 1164.28 1018.89" stroke="white" stroke-width="18.9686"/>
<path d="M1607.57 1358.6L1525.86 1101.71C1517.25 1074.63 1488.32 1059.67 1461.24 1068.28L1453.4 1070.77C1426.32 1079.38 1411.36 1108.31 1419.97 1135.39" stroke="white" stroke-width="18.9686" stroke-linecap="square"/>
<line x1="1422.12" y1="1141.92" x2="1553.61" y2="1560.88" stroke="white" stroke-width="18.9686"/>
<path d="M1685.24 1222.48L1605.52 964.967C1597.12 937.826 1568.31 922.635 1541.17 931.037L1533.3 933.471C1506.16 941.872 1490.97 970.686 1499.37 997.827" stroke="white" stroke-width="18.9686" stroke-linecap="square"/>
<line x1="1502.02" y1="1005.87" x2="1610.76" y2="1367.58" stroke="white" stroke-width="18.9686"/>
<path d="M1808.4 1238.16L1728.68 980.649C1720.28 953.508 1691.46 938.317 1664.32 946.718L1656.46 949.152C1629.32 957.554 1614.13 986.368 1622.53 1013.51" stroke="white" stroke-width="18.9686" stroke-linecap="square"/>
<line x1="1624.96" y1="1021.37" x2="1714.19" y2="1317.12" stroke="white" stroke-width="18.9686"/>
<path d="M1928.63 1281.5L1857.67 1052.28C1850.19 1028.12 1824.54 1014.6 1800.38 1022.08L1793.38 1024.24C1769.22 1031.72 1755.7 1057.37 1763.18 1081.53" stroke="white" stroke-width="18.9686" stroke-linecap="square"/>
<line x1="1761.38" y1="1072.43" x2="1812.61" y2="1246.64" stroke="white" stroke-width="18.9686"/>
<path d="M1930.87 1288.97L1951.14 1350.45" stroke="white" stroke-width="18.9686"/>
<path d="M1493.94 1646.56C1421.6 1575.62 1330.31 1532.1 1363.89 1497.86C1397.47 1463.62 1483.33 1493.37 1555.66 1564.3" stroke="white" stroke-width="18.9686"/>
<path d="M1015.6 930.74C876.561 1120.15 882.999 1221.66 844.814 1252.96" stroke="white" stroke-width="18.9686"/>
<path d="M1163.92 1017.99C1234.2 1155.14 1122.94 1212.11 1163.92 1270.89" stroke="white" stroke-width="18.9686" stroke-linecap="round"/>
<path d="M1951.08 1350.41C2012.35 1537.22 1871.9 1610.96 1926.56 1657.29" stroke="white" stroke-width="18.9686"/>
<path d="M1494.85 1649.28C1335.09 1763.88 1297.55 1691.93 1302.46 1742.72" stroke="white" stroke-width="18.9686"/>
<path d="M1493.82 1646.29C1510.29 1661.69 1597.93 1725.96 1651.04 1729.15" stroke="white" stroke-width="18.9686"/>
<defs>
<linearGradient id="paint0_linear_114_1578" x1="1787.98" y1="0" x2="1787.98" y2="2526.13" gradientUnits="userSpaceOnUse">
<stop offset="0.234375" stop-color="#FFC228"/>
<stop offset="1" stop-color="white"/>
</linearGradient>
<linearGradient id="paint1_linear_114_1578" x1="3067.44" y1="1264.15" x2="0" y2="1264.15" gradientUnits="userSpaceOnUse">
<stop stop-color="#002891"/>
<stop offset="1" stop-color="#2864FF"/>
</linearGradient>
</defs>
</svg>
